<svg id="Layer_1" enable-background="new 0 0 256 256" height="512" viewBox="0 0 256 256" width="512" xmlns="http://www.w3.org/2000/svg"><g><g><path d="m243.15 191.318h-230.3c-4.888 0-8.85-3.962-8.85-8.85v-141.796c0-4.888 3.962-8.85 8.85-8.85h230.3c4.888 0 8.85 3.962 8.85 8.85v141.796c0 4.888-3.962 8.85-8.85 8.85z" fill="#f4efed"/></g><g><path d="m243.15 31.822h-10c4.888 0 8.85 3.962 8.85 8.85v141.796c0 4.888-3.962 8.85-8.85 8.85h10c4.888 0 8.85-3.962 8.85-8.85v-141.796c0-4.888-3.962-8.85-8.85-8.85z" fill="#d6d1cf"/></g><g><path d="m12.85 191.318h10c-4.888 0-8.85-3.962-8.85-8.85v-141.796c0-4.888 3.962-8.85 8.85-8.85h-10c-4.888 0-8.85 3.962-8.85 8.85v141.796c0 4.888 3.962 8.85 8.85 8.85z" fill="#fff"/></g><g><path d="m208.901 224.178h-161.802v-11.854c0-4.888 3.962-8.85 8.85-8.85h144.102c4.888 0 8.85 3.962 8.85 8.85z" fill="#526faa"/></g><g><path d="m200.051 203.474h-10c4.888 0 8.85 3.962 8.85 8.85v11.855h10v-11.855c0-4.888-3.962-8.85-8.85-8.85z" fill="#34518c"/></g><g><path d="m55.949 203.474h10c-4.888 0-8.85 3.962-8.85 8.85v11.855h-10v-11.855c0-4.888 3.962-8.85 8.85-8.85z" fill="#708dc8"/></g><g><path d="m80.503 191.318h94.993v12.156h-94.993z" fill="#34518c"/></g><g><path d="m12 69.026c-1.104 0-2-.896-2-2v-12c0-1.104.896-2 2-2s2 .896 2 2v12c0 1.105-.896 2-2 2z" fill="#690589"/></g><g><path d="m208.901 226.178h-161.802c-1.104 0-2-.896-2-2v-11.854c0-5.983 4.867-10.851 10.851-10.851h144.102c5.983 0 10.851 4.867 10.851 10.851v11.854c-.002 1.104-.897 2-2.002 2zm-159.802-4h157.803v-9.854c0-3.777-3.073-6.851-6.851-6.851h-144.102c-3.777 0-6.851 3.073-6.851 6.851v9.854z" fill="#690589"/></g><g><path d="m175.497 205.474h-94.994c-1.104 0-2-.896-2-2v-12.155c0-1.104.896-2 2-2h94.994c1.104 0 2 .896 2 2v12.155c0 1.104-.895 2-2 2zm-92.994-4h90.994v-8.155h-90.994z" fill="#690589"/></g><g><path d="m243.15 193.318h-230.3c-5.982 0-10.85-4.867-10.85-10.851v-141.795c0-5.982 4.867-10.85 10.85-10.85h230.3c5.982 0 10.85 4.867 10.85 10.85v141.796c0 5.983-4.867 10.85-10.85 10.85zm-230.3-159.496c-3.777 0-6.85 3.072-6.85 6.85v141.796c0 3.777 3.072 6.851 6.85 6.851h230.3c3.777 0 6.85-3.073 6.85-6.851v-141.796c0-3.777-3.072-6.85-6.85-6.85z" fill="#690589"/></g><g><path d="m169.326 163.185h-82.652c-27.915 0-50.544-22.629-50.544-50.544 0-27.915 22.629-50.544 50.544-50.544h82.653c27.915 0 50.544 22.629 50.544 50.544-.001 27.915-22.63 50.544-50.545 50.544z" fill="#8852a8"/></g><g><path d="m169.326 62.098h-9c27.915 0 50.544 22.629 50.544 50.544 0 27.915-22.629 50.544-50.544 50.544h9c27.915 0 50.544-22.629 50.544-50.544 0-27.915-22.629-50.544-50.544-50.544z" fill="#6a348a"/></g><g><path d="m86.674 163.185h9c-27.915 0-50.544-22.629-50.544-50.544 0-27.915 22.629-50.544 50.544-50.544h-9c-27.915 0-50.544 22.629-50.544 50.544 0 27.915 22.629 50.544 50.544 50.544z" fill="#a670c6"/></g><g><path d="m169.326 165.186h-82.652c-28.973 0-52.544-23.571-52.544-52.544s23.571-52.544 52.544-52.544h82.652c28.973 0 52.544 23.571 52.544 52.544s-23.571 52.544-52.544 52.544zm-82.652-101.088c-26.768 0-48.544 21.776-48.544 48.544s21.776 48.544 48.544 48.544h82.652c26.768 0 48.544-21.776 48.544-48.544s-21.776-48.544-48.544-48.544z" fill="#690589"/></g><g><path d="m92.152 125.182h-16.962l-3.421 9.074c-.628 1.535-2.094 2.443-3.63 2.443-.489 0-.908-.07-1.326-.21-2.024-.768-3.001-3.001-2.303-5.025l15.427-41.114c.628-1.536 2.164-2.513 3.7-2.443 1.605-.07 3.071.908 3.699 2.443l15.426 41.114c.698 2.024-.279 4.258-2.304 5.025-.349.14-.837.21-1.326.21-1.536 0-3.002-.908-3.56-2.443zm-2.862-7.678-5.654-15.008-5.654 15.008z" fill="#f4efed"/></g><g><path d="m112.33 132.86v-41.183c0-2.164 1.675-3.84 3.839-3.84h8.237c13.472 0 24.361 10.959 24.361 24.361 0 13.542-10.889 24.501-24.361 24.501h-8.237c-2.164 0-3.839-1.745-3.839-3.839zm7.747-3.909h4.328c9.214-.07 16.612-7.469 16.612-16.753 0-9.144-7.399-16.613-16.612-16.613h-4.328z" fill="#f4efed"/></g><g><path d="m154.369 124.553c1.256-1.535 3.56-1.745 5.096-.489 3.071 2.513 8.375 5.445 13.331 5.375 3.49 0 6.632-1.047 8.725-2.583 2.095-1.535 3.002-3.281 3.002-5.025 0-.908-.209-1.535-.629-2.234-.419-.698-1.047-1.396-2.094-2.094-2.025-1.327-5.445-2.513-9.563-3.281h-.139c-3.282-.628-6.352-1.465-9.005-2.722-2.652-1.256-4.956-3.001-6.491-5.444-1.047-1.675-1.605-3.63-1.605-5.725 0-4.187 2.373-7.817 5.584-10.191 3.28-2.373 7.538-3.7 12.076-3.7 6.701 0 11.657 3.281 15.217 5.585 1.606 1.117 2.095 3.35.977 4.956-1.047 1.676-3.281 2.164-4.956 1.047-3.56-2.373-6.98-4.467-11.238-4.467-3.141 0-5.933.977-7.818 2.374-1.884 1.395-2.652 2.932-2.652 4.397 0 .838.139 1.396.489 1.955.349.559.976 1.187 1.884 1.815 1.815 1.256 4.956 2.373 8.725 3.071h.14c3.559.698 6.84 1.605 9.633 2.932 2.861 1.395 5.374 3.211 6.98 5.793 1.047 1.675 1.675 3.769 1.675 5.933 0 4.467-2.514 8.307-6.004 10.82-3.419 2.513-7.957 3.979-12.913 3.979-7.538-.07-13.89-3.84-17.869-6.98-1.535-1.257-1.745-3.561-.558-5.097z" fill="#f4efed"/></g><g><path d="m215.879 161.457-6.952 21.88-9.438-23.854-9.438-23.854 23.854 9.438 23.853 9.438z" fill="#fcc24c"/></g><g><path d="m208.927 185.337c-.818 0-1.557-.499-1.859-1.265l-18.876-47.708c-.294-.741-.118-1.586.445-2.149.563-.565 1.408-.739 2.15-.445l47.706 18.876c.787.311 1.293 1.083 1.264 1.929-.029.845-.587 1.581-1.394 1.837l-20.892 6.639-6.639 20.893c-.256.807-.992 1.364-1.837 1.394-.022-.001-.046-.001-.068-.001zm-15.317-46.149 15.11 38.191 5.252-16.528c.197-.619.682-1.104 1.301-1.301l16.528-5.252z" fill="#690589"/></g></g></svg>